:SAMPLES-PER-SECOND 30
:FULLY-SPECIFIED
:DEGREES
730
root  3.84371 37.9043 4.50868 -130.845 -62.1735 136.063
RightUpLeg  -29.3163 -4.24126 -16.0746
RightLeg  50.7405 -16.2023 -20.4881
RightFoot  -16.0641 0.370895 11.4931
RightToes  -2.32832e-010 0 -3.6325e-017
Spine  16.6892 3.34584 -0.232368
Spine1  -4.42135 7.6318 -28.1511
HEad  -27.5554 1.16659 -2.57317
LeftShoulder1  0.977091 -1.33132 -13.1866
LeftArm  42.378 50.9701 -34.9854
LeftForeArm  8.0045 -26.4069 -5.24455
LeftHand  -2.12595 -2.83052 29.6821
RightShoulder  -0.0942319 -4.7091 -0.713105
RightArm  -33.6212 25.3067 55.5689
RightForeArm  151.926 42.1755 169.619
RightHand  -0.33429 -1.88108 -10.8732
LeftUpLeg  -10.1708 6.93559 -10.1614
LeftLeg  22.3616 17.245 6.0671
LeftFoot  -9.29856 0.530167 -25.7005
LeftToes  2.2737e-010 4.38529e-011 2.18788e-011
731
root  4.05945 37.7235 4.48872 -133.056 -63.7644 138.34
RightUpLeg  -28.883 3.43256 -14.4838
RightLeg  51.8866 -20.1906 -25.5717
RightFoot  -15.9563 0.398326 12.5663
RightToes  -2.32832e-010 0 -3.6325e-017
Spine  17.799 4.06602 4.08262
Spine1  -3.71438 9.49187 -30.409
HEad  -27.2175 -2.71153 -2.67444
LeftShoulder1  0.895414 -1.11386 -12.2943
LeftArm  42.9667 49.4955 -32.9325
LeftForeArm  8.31683 -27.1807 -5.41008
LeftHand  -2.1459 -2.98702 29.4178
RightShoulder  -0.0798767 -4.57306 -1.12663
RightArm  -35.5618 28.4147 56.5847
RightForeArm  151.911 42.9751 169.352
RightHand  -0.336353 -1.71776 -10.4718
LeftUpLeg  -17.5955 10.9441 -8.39172
LeftLeg  34.8415 11.3591 9.04351
LeftFoot  -4.75397 1.58525 -26.7546
LeftToes  2.2737e-010 4.38529e-011 2.18788e-011
732
root  4.16766 37.5841 4.39212 -137.265 -66.9717 142.031
RightUpLeg  -27.243 7.04626 -10.5686
RightLeg  52.616 -22.2799 -28.2945
RightFoot  -15.4234 0.365115 13.1312
RightToes  -2.32832e-010 0 -3.6325e-017
Spine  19.0867 4.74081 7.90529
Spine1  -3.22954 10.6812 -29.1447
HEad  -25.9505 -5.71509 -2.88435
LeftShoulder1  0.821093 -1.06309 -10.7262
LeftArm  40.4149 49.9951 -31.5685
LeftForeArm  10.565 -31.6253 -6.36661
LeftHand  -2.22526 -3.50438 28.7703
RightShoulder  -0.0421345 -4.10965 -1.60694
RightArm  -37.4902 28.5395 55.8585
RightForeArm  150.609 45.6789 168.316
RightHand  -0.341288 -1.83839 -10.9751
LeftUpLeg  -25.5426 8.60563 -3.78753
LeftLeg  49.5089 9.51008 12.1934
LeftFoot  2.53185 2.97105 -24.365
LeftToes  2.2737e-010 4.38529e-011 2.18788e-011
733
root  4.10469 37.6258 4.30516 -141.71 -69.7272 145.516
RightUpLeg  -24.0876 6.50186 -6.87849
RightLeg  50.8792 -24.5276 -28.9439
RightFoot  -16.0827 0.389232 12.0473
RightToes  -2.32832e-010 0 -3.6325e-017
Spine  19.7153 5.55158 9.53365
Spine1  -3.03405 11.1491 -25.0326
HEad  -23.7566 -7.37027 -3.01922
LeftShoulder1  0.749559 -0.98224 -9.31577
LeftArm  38.6595 52.1429 -30.2241
LeftForeArm  13.7924 -38.2283 -7.98556
LeftHand  -2.25154 -3.99752 27.6325
RightShoulder  0.010222 -3.3818 -0.91925
RightArm  -37.6161 27.0816 53.9201
RightForeArm  149.665 49.8672 166.581
RightHand  -0.362201 -1.8519 -11.7084
LeftUpLeg  -32.0802 4.77912 0.0993789
LeftLeg  62.4333 6.99814 14.866
LeftFoot  5.4884 2.87697 -19.3538
LeftToes  2.2737e-010 4.38529e-011 2.18788e-011
734
root  3.94313 37.8009 4.22889 -145.704 -70.6059 149.009
RightUpLeg  -21.6444 4.73277 -5.11869
RightLeg  47.8752 -25.3136 -27.1004
RightFoot  -16.8573 0.394873 10.5316
RightToes  -2.32832e-010 0 -3.6325e-017
Spine  19.4468 6.82063 8.94382
Spine1  -3.23426 11.6921 -21.3498
HEad  -21.583 -8.02069 -2.91342
LeftShoulder1  0.717279 -0.96343 -8.58658
LeftArm  37.8932 54.2428 -28.9873
LeftForeArm  17.3875 -44.8253 -9.92802
LeftHand  -2.15676 -4.12144 26.19
RightShoulder  0.0606824 -2.85039 1.08176
RightArm  -34.7381 24.3245 52.5041
RightForeArm  148.835 54.5108 164.297
RightHand  -0.383157 -1.74158 -12.0394
LeftUpLeg  -37.2752 1.18594 2.05539
LeftLeg  72.8226 4.02915 15.2921
LeftFoot  2.78889 1.95037 -15.8019
LeftToes  2.2737e-010 4.38529e-011 2.18788e-011
735
root  3.71415 38.0971 4.17904 -152.629 -70.3193 156.262
RightUpLeg  -20.1118 3.18997 -3.30936
RightLeg  43.9813 -23.8396 -22.9057
RightFoot  -16.2028 0.298988 9.61993
RightToes  -2.32832e-010 0 -3.6325e-017
Spine  18.8965 8.23253 8.9924
Spine1  -3.66791 12.6526 -19.1279
HEad  -20.2861 -8.01117 -2.78789
LeftShoulder1  0.716667 -0.95086 -8.62174
LeftArm  36.0016 54.9235 -29.26
LeftForeArm  19.8003 -50.1045 -11.9109
LeftHand  -2.04557 -4.07083 25.0281
RightShoulder  0.130708 -2.36626 3.52064
RightArm  -29.6273 19.4273 52.1838
RightForeArm  146.292 59.4269 161.095
RightHand  -0.401067 -1.62167 -12.2239
LeftUpLeg  -40.8207 -0.65028 3.93909
LeftLeg  79.2261 1.50858 11.272
LeftFoot  -0.769653 1.46678 -15.7806
LeftToes  2.2737e-010 4.38529e-011 2.18788e-011
736
root  3.4521 38.4741 4.14457 -163.761 -69.7241 167.984
RightUpLeg  -17.9446 1.22404 0.193394
RightLeg  38.7013 -21.7617 -17.9089
RightFoot  -14.2137 0.123263 8.67221
RightToes  -2.32832e-010 0 -3.6325e-017
Spine  18.648 9.26718 10.6918
Spine1  -4.49451 13.4286 -17.1253
HEad  -19.9303 -7.23034 -2.7329
LeftShoulder1  0.715327 -0.77365 -9.33765
LeftArm  31.8532 53.96 -32.0813
LeftForeArm  19.8291 -53.663 -13.6909
LeftHand  -2.01412 -4.05362 24.6986
RightShoulder  0.293236 -1.41836 6.33108
RightArm  -23.3303 12.3109 51.7462
RightForeArm  140.875 65.634 155.17
RightHand  -0.463024 -1.18527 -12.707
LeftUpLeg  -42.0691 -1.14636 7.09331
LeftLeg  80.641 0.255312 4.38663
LeftFoot  -2.63356 1.40608 -18.1261
LeftToes  2.2737e-010 4.38529e-011 2.18788e-011
737
root  3.2091 38.9157 4.05317 -175.471 -68.9075 -179.687
RightUpLeg  -14.6292 -1.46968 4.53317
RightLeg  31.6379 -20.378 -13.2909
RightFoot  -11.5792 -0.0620106 6.95896
RightToes  -2.32832e-010 0 -3.6325e-017
Spine  18.3977 9.7895 12.0354
Spine1  -5.66729 13.4236 -14.0303
HEad  -20.0511 -5.32897 -2.48595
LeftShoulder1  0.7396 -0.627315 -10.6365
LeftArm  25.6124 51.9677 -37.0823
LeftForeArm  18.7131 -56.0971 -15.2277
LeftHand  -1.99787 -3.76981 25.2381
RightShoulder  0.554494 -0.218805 9.61171
RightArm  -16.0793 4.48164 50.7771
RightForeArm  126.567 74.0105 138.425
RightHand  -0.620028 -0.118927 -13.675
LeftUpLeg  -41.1439 -1.57378 10.7762
LeftLeg  76.5154 -0.486964 -0.988226
LeftFoot  -3.82468 1.42042 -21.0889
LeftToes  2.2737e-010 4.38529e-011 2.18788e-011
738
root  2.973 39.306 3.86532 175.349 -68.4541 -169.339
RightUpLeg  -11.689 -3.06463 8.39426
RightLeg  24.7375 -20.2241 -9.80431
RightFoot  -8.78856 -0.192474 5.79547
RightToes  -2.32832e-010 0 -3.6325e-017
Spine  16.8731 9.88089 11.1075
Spine1  -6.47948 12.3816 -8.98629
HEad  -20.1771 -2.18411 -1.9311
LeftShoulder1  0.865625 -0.975714 -12.1987
LeftArm  17.7398 49.4599 -43.674
LeftForeArm  18.8964 -59.2646 -17.4429
LeftHand  -1.89316 -3.03822 25.946
RightShoulder  0.739518 0.366321 12.1374
RightArm  -8.26459 -1.90319 50.8032
RightForeArm  69.6503 78.9256 76.9396
RightHand  -0.88631 1.3964 -15.241
LeftUpLeg  -39.3257 -2.96282 14.2366
LeftLeg  67.4693 -1.82654 -4.06331
LeftFoot  -4.46679 1.48228 -23.8459
LeftToes  2.2737e-010 4.38529e-011 2.18788e-011
